<svg xmlns="http://www.w3.org/2000/svg" viewBox="0 0 100 100" role="img" aria-label="MedBridge Tourism">
  <defs>
    <linearGradient id="mbHeart" x1="50" y1="12" x2="50" y2="90" gradientUnits="userSpaceOnUse">
      <stop offset="0" stop-color="#FF8FB1"/>
      <stop offset="0.5" stop-color="#FF8A5B"/>
      <stop offset="1" stop-color="#F4A24C"/>
    </linearGradient>
  </defs>
  <!-- Heart (care) holding a bridge arch (the journey to treatment) -->
  <path fill="url(#mbHeart)" d="M50 86C18 64 14 44 14 34C14 22 24 16 33 16C41 16 47 21 50 27C53 21 59 16 67 16C76 16 86 22 86 34C86 44 82 64 50 86Z"/>
  <g fill="#ffffff" stroke="#ffffff" stroke-linecap="round">
    <path d="M27 61 Q50 36 73 61" fill="none" stroke-width="5.2"/>
    <rect x="24" y="60.4" width="52" height="5.2" rx="2.6" stroke="none"/>
    <path d="M40 61 V51 M60 61 V51" stroke-width="3.3"/>
    <rect x="28.8" y="64" width="4.8" height="9" rx="2.4" stroke="none"/>
    <rect x="66.4" y="64" width="4.8" height="9" rx="2.4" stroke="none"/>
  </g>
</svg>
